<mxfile host="Electron" modified="2023-04-17T22:18:09.688Z" agent="Mozilla/5.0 (Macintosh; Intel Mac OS X 10_15_7) AppleWebKit/537.36 (KHTML, like Gecko) draw.io/21.1.2 Chrome/106.0.5249.199 Electron/21.4.3 Safari/537.36" etag="C5VdpLTJk1IE1VB4p2bP" version="21.1.2" type="device">
  <diagram name="Страница 1" id="8CbFmlwksHfxtFffF9iG">
    <mxGraphModel dx="2514" dy="1096" grid="1" gridSize="10" guides="1" tooltips="1" connect="1" arrows="1" fold="1" page="1" pageScale="1" pageWidth="827" pageHeight="1169" math="0" shadow="0">
      <root>
        <mxCell id="0" />
        <mxCell id="1" parent="0" />
        <mxCell id="jedloqx28jn0vcMNuLZX-17" style="edgeStyle=orthogonalEdgeStyle;rounded=0;orthogonalLoop=1;jettySize=auto;html=1;exitX=0;exitY=1;exitDx=0;exitDy=0;entryX=1;entryY=1;entryDx=0;entryDy=0;curved=1;" parent="1" source="jedloqx28jn0vcMNuLZX-5" target="jedloqx28jn0vcMNuLZX-6" edge="1">
          <mxGeometry relative="1" as="geometry" />
        </mxCell>
        <mxCell id="jedloqx28jn0vcMNuLZX-23" value="&lt;div&gt;C1&lt;/div&gt;" style="edgeLabel;html=1;align=center;verticalAlign=middle;resizable=0;points=[];" parent="jedloqx28jn0vcMNuLZX-17" vertex="1" connectable="0">
          <mxGeometry x="-0.2534" y="-5" relative="1" as="geometry">
            <mxPoint x="-24" y="-8" as="offset" />
          </mxGeometry>
        </mxCell>
        <mxCell id="jedloqx28jn0vcMNuLZX-18" style="edgeStyle=orthogonalEdgeStyle;rounded=0;orthogonalLoop=1;jettySize=auto;html=1;exitX=0;exitY=0;exitDx=0;exitDy=0;curved=1;entryX=0.19;entryY=0.901;entryDx=0;entryDy=0;entryPerimeter=0;" parent="1" source="jedloqx28jn0vcMNuLZX-5" target="jedloqx28jn0vcMNuLZX-7" edge="1">
          <mxGeometry relative="1" as="geometry" />
        </mxCell>
        <mxCell id="jedloqx28jn0vcMNuLZX-24" value="&lt;div&gt;C2&lt;/div&gt;" style="edgeLabel;html=1;align=center;verticalAlign=middle;resizable=0;points=[];" parent="jedloqx28jn0vcMNuLZX-18" vertex="1" connectable="0">
          <mxGeometry x="-0.2783" y="-2" relative="1" as="geometry">
            <mxPoint y="-21" as="offset" />
          </mxGeometry>
        </mxCell>
        <mxCell id="jedloqx28jn0vcMNuLZX-19" style="edgeStyle=orthogonalEdgeStyle;rounded=0;orthogonalLoop=1;jettySize=auto;html=1;exitX=1;exitY=1;exitDx=0;exitDy=0;entryX=0;entryY=1;entryDx=0;entryDy=0;curved=1;" parent="1" source="jedloqx28jn0vcMNuLZX-5" target="jedloqx28jn0vcMNuLZX-8" edge="1">
          <mxGeometry relative="1" as="geometry" />
        </mxCell>
        <mxCell id="jedloqx28jn0vcMNuLZX-25" value="C3" style="edgeLabel;html=1;align=center;verticalAlign=middle;resizable=0;points=[];" parent="jedloqx28jn0vcMNuLZX-19" vertex="1" connectable="0">
          <mxGeometry x="0.1337" y="7" relative="1" as="geometry">
            <mxPoint y="-7" as="offset" />
          </mxGeometry>
        </mxCell>
        <mxCell id="jedloqx28jn0vcMNuLZX-5" value="N1" style="ellipse;whiteSpace=wrap;html=1;aspect=fixed;" parent="1" vertex="1">
          <mxGeometry x="340" y="750" width="50" height="50" as="geometry" />
        </mxCell>
        <mxCell id="jedloqx28jn0vcMNuLZX-20" style="edgeStyle=orthogonalEdgeStyle;rounded=0;orthogonalLoop=1;jettySize=auto;html=1;exitX=1;exitY=0.5;exitDx=0;exitDy=0;entryX=0;entryY=0.5;entryDx=0;entryDy=0;curved=1;" parent="1" source="jedloqx28jn0vcMNuLZX-6" target="jedloqx28jn0vcMNuLZX-5" edge="1">
          <mxGeometry relative="1" as="geometry" />
        </mxCell>
        <mxCell id="jedloqx28jn0vcMNuLZX-22" value="&lt;div&gt;C5&lt;/div&gt;" style="edgeLabel;html=1;align=center;verticalAlign=middle;resizable=0;points=[];" parent="jedloqx28jn0vcMNuLZX-20" vertex="1" connectable="0">
          <mxGeometry x="-0.1944" y="-2" relative="1" as="geometry">
            <mxPoint x="-1" y="4" as="offset" />
          </mxGeometry>
        </mxCell>
        <mxCell id="jedloqx28jn0vcMNuLZX-21" style="edgeStyle=orthogonalEdgeStyle;rounded=0;orthogonalLoop=1;jettySize=auto;html=1;exitX=0.5;exitY=0;exitDx=0;exitDy=0;entryX=0.5;entryY=1;entryDx=0;entryDy=0;curved=1;" parent="1" source="jedloqx28jn0vcMNuLZX-6" target="jedloqx28jn0vcMNuLZX-9" edge="1">
          <mxGeometry relative="1" as="geometry" />
        </mxCell>
        <mxCell id="jedloqx28jn0vcMNuLZX-26" value="C4" style="edgeLabel;html=1;align=center;verticalAlign=middle;resizable=0;points=[];" parent="jedloqx28jn0vcMNuLZX-21" vertex="1" connectable="0">
          <mxGeometry x="0.1429" y="1" relative="1" as="geometry">
            <mxPoint x="-6" y="4" as="offset" />
          </mxGeometry>
        </mxCell>
        <mxCell id="jedloqx28jn0vcMNuLZX-6" value="N2" style="ellipse;whiteSpace=wrap;html=1;aspect=fixed;" parent="1" vertex="1">
          <mxGeometry x="150" y="680" width="60" height="60" as="geometry" />
        </mxCell>
        <mxCell id="jedloqx28jn0vcMNuLZX-27" style="edgeStyle=orthogonalEdgeStyle;rounded=0;orthogonalLoop=1;jettySize=auto;html=1;exitX=1;exitY=1;exitDx=0;exitDy=0;entryX=1;entryY=0;entryDx=0;entryDy=0;curved=1;" parent="1" source="jedloqx28jn0vcMNuLZX-7" target="jedloqx28jn0vcMNuLZX-5" edge="1">
          <mxGeometry relative="1" as="geometry" />
        </mxCell>
        <mxCell id="jedloqx28jn0vcMNuLZX-29" value="&lt;div&gt;C6&lt;/div&gt;" style="edgeLabel;html=1;align=center;verticalAlign=middle;resizable=0;points=[];" parent="jedloqx28jn0vcMNuLZX-27" vertex="1" connectable="0">
          <mxGeometry x="0.054" y="4" relative="1" as="geometry">
            <mxPoint x="-7" y="-6" as="offset" />
          </mxGeometry>
        </mxCell>
        <mxCell id="yAhBsMz5c8Y_RLKuhSOs-9" value="C10" style="edgeStyle=orthogonalEdgeStyle;shape=connector;curved=1;rounded=0;orthogonalLoop=1;jettySize=auto;html=1;exitX=1;exitY=0.5;exitDx=0;exitDy=0;entryX=0;entryY=0;entryDx=0;entryDy=0;labelBackgroundColor=default;strokeColor=default;fontFamily=Helvetica;fontSize=11;fontColor=default;endArrow=classic;" parent="1" source="jedloqx28jn0vcMNuLZX-7" target="jedloqx28jn0vcMNuLZX-10" edge="1">
          <mxGeometry x="-0.0437" y="-5" relative="1" as="geometry">
            <Array as="points">
              <mxPoint x="435" y="610" />
              <mxPoint x="435" y="592" />
            </Array>
            <mxPoint as="offset" />
          </mxGeometry>
        </mxCell>
        <mxCell id="jedloqx28jn0vcMNuLZX-7" value="&lt;div&gt;N3&lt;/div&gt;" style="ellipse;whiteSpace=wrap;html=1;aspect=fixed;" parent="1" vertex="1">
          <mxGeometry x="340" y="585" width="50" height="50" as="geometry" />
        </mxCell>
        <mxCell id="jedloqx28jn0vcMNuLZX-38" style="edgeStyle=orthogonalEdgeStyle;rounded=0;orthogonalLoop=1;jettySize=auto;html=1;exitX=0;exitY=0.5;exitDx=0;exitDy=0;entryX=1;entryY=0.5;entryDx=0;entryDy=0;curved=1;" parent="1" source="jedloqx28jn0vcMNuLZX-8" target="jedloqx28jn0vcMNuLZX-5" edge="1">
          <mxGeometry relative="1" as="geometry" />
        </mxCell>
        <mxCell id="jedloqx28jn0vcMNuLZX-43" value="C12" style="edgeLabel;html=1;align=center;verticalAlign=middle;resizable=0;points=[];" parent="jedloqx28jn0vcMNuLZX-38" vertex="1" connectable="0">
          <mxGeometry x="0.0542" y="2" relative="1" as="geometry">
            <mxPoint y="-19" as="offset" />
          </mxGeometry>
        </mxCell>
        <mxCell id="yAhBsMz5c8Y_RLKuhSOs-1" style="edgeStyle=orthogonalEdgeStyle;shape=connector;curved=1;rounded=0;orthogonalLoop=1;jettySize=auto;html=1;exitX=0.5;exitY=1;exitDx=0;exitDy=0;entryX=0;entryY=0.5;entryDx=0;entryDy=0;labelBackgroundColor=default;strokeColor=default;fontFamily=Helvetica;fontSize=11;fontColor=default;endArrow=classic;" parent="1" source="jedloqx28jn0vcMNuLZX-8" target="jedloqx28jn0vcMNuLZX-9" edge="1">
          <mxGeometry relative="1" as="geometry">
            <Array as="points">
              <mxPoint x="565" y="840" />
              <mxPoint x="100" y="840" />
              <mxPoint x="100" y="580" />
            </Array>
          </mxGeometry>
        </mxCell>
        <mxCell id="yAhBsMz5c8Y_RLKuhSOs-2" value="C11" style="edgeLabel;html=1;align=center;verticalAlign=middle;resizable=0;points=[];fontSize=11;fontFamily=Helvetica;fontColor=default;" parent="yAhBsMz5c8Y_RLKuhSOs-1" vertex="1" connectable="0">
          <mxGeometry x="-0.1901" y="-1" relative="1" as="geometry">
            <mxPoint as="offset" />
          </mxGeometry>
        </mxCell>
        <mxCell id="jedloqx28jn0vcMNuLZX-8" value="&lt;div&gt;N4&lt;/div&gt;" style="ellipse;whiteSpace=wrap;html=1;aspect=fixed;" parent="1" vertex="1">
          <mxGeometry x="540" y="690" width="50" height="50" as="geometry" />
        </mxCell>
        <mxCell id="jedloqx28jn0vcMNuLZX-44" style="edgeStyle=orthogonalEdgeStyle;rounded=0;orthogonalLoop=1;jettySize=auto;html=1;exitX=0.71;exitY=0.947;exitDx=0;exitDy=0;entryX=0;entryY=0;entryDx=0;entryDy=0;curved=1;exitPerimeter=0;" parent="1" source="jedloqx28jn0vcMNuLZX-9" target="jedloqx28jn0vcMNuLZX-5" edge="1">
          <mxGeometry relative="1" as="geometry">
            <Array as="points">
              <mxPoint x="223" y="607" />
              <mxPoint x="223" y="660" />
              <mxPoint x="300" y="660" />
              <mxPoint x="300" y="757" />
            </Array>
          </mxGeometry>
        </mxCell>
        <mxCell id="yAhBsMz5c8Y_RLKuhSOs-6" value="C13" style="edgeLabel;html=1;align=center;verticalAlign=middle;resizable=0;points=[];fontSize=11;fontFamily=Helvetica;fontColor=default;" parent="jedloqx28jn0vcMNuLZX-44" vertex="1" connectable="0">
          <mxGeometry x="-0.1106" y="-9" relative="1" as="geometry">
            <mxPoint as="offset" />
          </mxGeometry>
        </mxCell>
        <mxCell id="jedloqx28jn0vcMNuLZX-45" style="edgeStyle=orthogonalEdgeStyle;rounded=0;orthogonalLoop=1;jettySize=auto;html=1;entryX=0;entryY=1;entryDx=0;entryDy=0;curved=1;exitX=0.004;exitY=0.395;exitDx=0;exitDy=0;exitPerimeter=0;" parent="1" source="jedloqx28jn0vcMNuLZX-9" target="jedloqx28jn0vcMNuLZX-11" edge="1">
          <mxGeometry relative="1" as="geometry">
            <mxPoint x="169" y="574" as="sourcePoint" />
          </mxGeometry>
        </mxCell>
        <mxCell id="yAhBsMz5c8Y_RLKuhSOs-8" value="C15" style="edgeLabel;html=1;align=center;verticalAlign=middle;resizable=0;points=[];fontSize=11;fontFamily=Helvetica;fontColor=default;" parent="jedloqx28jn0vcMNuLZX-45" vertex="1" connectable="0">
          <mxGeometry x="0.2256" y="-41" relative="1" as="geometry">
            <mxPoint as="offset" />
          </mxGeometry>
        </mxCell>
        <mxCell id="jedloqx28jn0vcMNuLZX-50" style="edgeStyle=orthogonalEdgeStyle;rounded=0;orthogonalLoop=1;jettySize=auto;html=1;exitX=0.967;exitY=0.682;exitDx=0;exitDy=0;entryX=0;entryY=0.5;entryDx=0;entryDy=0;curved=1;exitPerimeter=0;" parent="1" source="jedloqx28jn0vcMNuLZX-9" target="jedloqx28jn0vcMNuLZX-13" edge="1">
          <mxGeometry relative="1" as="geometry">
            <Array as="points">
              <mxPoint x="229" y="591" />
              <mxPoint x="229" y="600" />
              <mxPoint x="300" y="600" />
              <mxPoint x="300" y="455" />
            </Array>
          </mxGeometry>
        </mxCell>
        <mxCell id="jedloqx28jn0vcMNuLZX-51" value="C18" style="edgeLabel;html=1;align=center;verticalAlign=middle;resizable=0;points=[];" parent="jedloqx28jn0vcMNuLZX-50" vertex="1" connectable="0">
          <mxGeometry x="0.0571" y="-22" relative="1" as="geometry">
            <mxPoint x="-2" y="-13" as="offset" />
          </mxGeometry>
        </mxCell>
        <mxCell id="jedloqx28jn0vcMNuLZX-74" style="edgeStyle=orthogonalEdgeStyle;rounded=0;orthogonalLoop=1;jettySize=auto;html=1;entryX=0.5;entryY=1;entryDx=0;entryDy=0;curved=1;exitX=1;exitY=0.5;exitDx=0;exitDy=0;" parent="1" source="jedloqx28jn0vcMNuLZX-9" target="jedloqx28jn0vcMNuLZX-12" edge="1">
          <mxGeometry relative="1" as="geometry">
            <mxPoint x="250" y="580" as="sourcePoint" />
          </mxGeometry>
        </mxCell>
        <mxCell id="jedloqx28jn0vcMNuLZX-78" value="C16" style="edgeLabel;html=1;align=center;verticalAlign=middle;resizable=0;points=[];" parent="jedloqx28jn0vcMNuLZX-74" vertex="1" connectable="0">
          <mxGeometry x="0.2694" y="5" relative="1" as="geometry">
            <mxPoint as="offset" />
          </mxGeometry>
        </mxCell>
        <mxCell id="jedloqx28jn0vcMNuLZX-82" style="edgeStyle=orthogonalEdgeStyle;rounded=0;orthogonalLoop=1;jettySize=auto;html=1;exitX=0.333;exitY=0.978;exitDx=0;exitDy=0;entryX=0;entryY=0.5;entryDx=0;entryDy=0;curved=1;exitPerimeter=0;" parent="1" source="jedloqx28jn0vcMNuLZX-9" target="jedloqx28jn0vcMNuLZX-6" edge="1">
          <mxGeometry relative="1" as="geometry" />
        </mxCell>
        <mxCell id="yAhBsMz5c8Y_RLKuhSOs-7" value="C14" style="edgeLabel;html=1;align=center;verticalAlign=middle;resizable=0;points=[];fontSize=11;fontFamily=Helvetica;fontColor=default;" parent="jedloqx28jn0vcMNuLZX-82" vertex="1" connectable="0">
          <mxGeometry x="-0.2969" y="-3" relative="1" as="geometry">
            <mxPoint as="offset" />
          </mxGeometry>
        </mxCell>
        <mxCell id="jedloqx28jn0vcMNuLZX-9" value="&lt;div&gt;N5&lt;/div&gt;" style="ellipse;whiteSpace=wrap;html=1;aspect=fixed;" parent="1" vertex="1">
          <mxGeometry x="170" y="550" width="60" height="60" as="geometry" />
        </mxCell>
        <mxCell id="jedloqx28jn0vcMNuLZX-55" style="edgeStyle=orthogonalEdgeStyle;rounded=0;orthogonalLoop=1;jettySize=auto;html=1;exitX=0;exitY=1;exitDx=0;exitDy=0;entryX=1;entryY=0;entryDx=0;entryDy=0;curved=1;" parent="1" source="jedloqx28jn0vcMNuLZX-10" target="jedloqx28jn0vcMNuLZX-5" edge="1">
          <mxGeometry relative="1" as="geometry">
            <Array as="points">
              <mxPoint x="487" y="660" />
              <mxPoint x="430" y="660" />
              <mxPoint x="430" y="757" />
            </Array>
          </mxGeometry>
        </mxCell>
        <mxCell id="jedloqx28jn0vcMNuLZX-56" value="C21" style="edgeLabel;html=1;align=center;verticalAlign=middle;resizable=0;points=[];" parent="jedloqx28jn0vcMNuLZX-55" vertex="1" connectable="0">
          <mxGeometry x="-0.0879" y="1" relative="1" as="geometry">
            <mxPoint as="offset" />
          </mxGeometry>
        </mxCell>
        <mxCell id="yAhBsMz5c8Y_RLKuhSOs-10" style="edgeStyle=orthogonalEdgeStyle;shape=connector;curved=1;rounded=0;orthogonalLoop=1;jettySize=auto;html=1;exitX=0;exitY=1;exitDx=0;exitDy=0;entryX=1;entryY=0.5;entryDx=0;entryDy=0;labelBackgroundColor=default;strokeColor=default;fontFamily=Helvetica;fontSize=11;fontColor=default;endArrow=classic;" parent="1" source="jedloqx28jn0vcMNuLZX-10" target="jedloqx28jn0vcMNuLZX-7" edge="1">
          <mxGeometry relative="1" as="geometry">
            <Array as="points">
              <mxPoint x="487" y="640" />
              <mxPoint x="390" y="640" />
            </Array>
          </mxGeometry>
        </mxCell>
        <mxCell id="yAhBsMz5c8Y_RLKuhSOs-11" value="C20" style="edgeLabel;html=1;align=center;verticalAlign=middle;resizable=0;points=[];fontSize=11;fontFamily=Helvetica;fontColor=default;" parent="yAhBsMz5c8Y_RLKuhSOs-10" vertex="1" connectable="0">
          <mxGeometry x="-0.1245" relative="1" as="geometry">
            <mxPoint as="offset" />
          </mxGeometry>
        </mxCell>
        <mxCell id="jedloqx28jn0vcMNuLZX-10" value="N6" style="ellipse;whiteSpace=wrap;html=1;aspect=fixed;" parent="1" vertex="1">
          <mxGeometry x="480" y="585" width="50" height="50" as="geometry" />
        </mxCell>
        <mxCell id="jedloqx28jn0vcMNuLZX-46" style="edgeStyle=orthogonalEdgeStyle;rounded=0;orthogonalLoop=1;jettySize=auto;html=1;exitX=1;exitY=1;exitDx=0;exitDy=0;curved=1;entryX=0.034;entryY=0.295;entryDx=0;entryDy=0;entryPerimeter=0;" parent="1" source="jedloqx28jn0vcMNuLZX-11" target="jedloqx28jn0vcMNuLZX-9" edge="1">
          <mxGeometry relative="1" as="geometry">
            <mxPoint x="181" y="556" as="targetPoint" />
            <Array as="points">
              <mxPoint x="90" y="410" />
              <mxPoint x="90" y="568" />
            </Array>
          </mxGeometry>
        </mxCell>
        <mxCell id="yAhBsMz5c8Y_RLKuhSOs-19" value="C22" style="edgeLabel;html=1;align=center;verticalAlign=middle;resizable=0;points=[];fontSize=11;fontFamily=Helvetica;fontColor=default;" parent="jedloqx28jn0vcMNuLZX-46" vertex="1" connectable="0">
          <mxGeometry x="-0.8395" y="-2" relative="1" as="geometry">
            <mxPoint x="21" y="112" as="offset" />
          </mxGeometry>
        </mxCell>
        <mxCell id="yAhBsMz5c8Y_RLKuhSOs-12" style="edgeStyle=orthogonalEdgeStyle;shape=connector;curved=1;rounded=0;orthogonalLoop=1;jettySize=auto;html=1;exitX=0.933;exitY=0.759;exitDx=0;exitDy=0;entryX=0.125;entryY=0.17;entryDx=0;entryDy=0;entryPerimeter=0;labelBackgroundColor=default;strokeColor=default;fontFamily=Helvetica;fontSize=11;fontColor=default;endArrow=classic;exitPerimeter=0;" parent="1" source="jedloqx28jn0vcMNuLZX-11" target="jedloqx28jn0vcMNuLZX-9" edge="1">
          <mxGeometry relative="1" as="geometry">
            <Array as="points">
              <mxPoint x="110" y="403" />
              <mxPoint x="110" y="560" />
            </Array>
          </mxGeometry>
        </mxCell>
        <mxCell id="yAhBsMz5c8Y_RLKuhSOs-20" value="C23" style="edgeLabel;html=1;align=center;verticalAlign=middle;resizable=0;points=[];fontSize=11;fontFamily=Helvetica;fontColor=default;" parent="yAhBsMz5c8Y_RLKuhSOs-12" vertex="1" connectable="0">
          <mxGeometry x="-0.6432" y="-9" relative="1" as="geometry">
            <mxPoint x="8" y="100" as="offset" />
          </mxGeometry>
        </mxCell>
        <mxCell id="yAhBsMz5c8Y_RLKuhSOs-14" style="edgeStyle=orthogonalEdgeStyle;shape=connector;curved=1;rounded=0;orthogonalLoop=1;jettySize=auto;html=1;exitX=0.971;exitY=0.672;exitDx=0;exitDy=0;entryX=0.233;entryY=0.079;entryDx=0;entryDy=0;entryPerimeter=0;labelBackgroundColor=default;strokeColor=default;fontFamily=Helvetica;fontSize=11;fontColor=default;endArrow=classic;exitPerimeter=0;" parent="1" source="jedloqx28jn0vcMNuLZX-11" target="jedloqx28jn0vcMNuLZX-9" edge="1">
          <mxGeometry relative="1" as="geometry">
            <Array as="points">
              <mxPoint x="130" y="397" />
              <mxPoint x="130" y="555" />
            </Array>
          </mxGeometry>
        </mxCell>
        <mxCell id="yAhBsMz5c8Y_RLKuhSOs-21" value="C24" style="edgeLabel;html=1;align=center;verticalAlign=middle;resizable=0;points=[];fontSize=11;fontFamily=Helvetica;fontColor=default;" parent="yAhBsMz5c8Y_RLKuhSOs-14" vertex="1" connectable="0">
          <mxGeometry x="-0.6132" y="-11" relative="1" as="geometry">
            <mxPoint x="18" y="89" as="offset" />
          </mxGeometry>
        </mxCell>
        <mxCell id="yAhBsMz5c8Y_RLKuhSOs-15" style="edgeStyle=orthogonalEdgeStyle;shape=connector;curved=1;rounded=0;orthogonalLoop=1;jettySize=auto;html=1;exitX=0.988;exitY=0.568;exitDx=0;exitDy=0;entryX=0.354;entryY=0.015;entryDx=0;entryDy=0;entryPerimeter=0;labelBackgroundColor=default;strokeColor=default;fontFamily=Helvetica;fontSize=11;fontColor=default;endArrow=classic;exitPerimeter=0;" parent="1" source="jedloqx28jn0vcMNuLZX-11" target="jedloqx28jn0vcMNuLZX-9" edge="1">
          <mxGeometry relative="1" as="geometry">
            <Array as="points">
              <mxPoint x="150" y="390" />
              <mxPoint x="150" y="551" />
            </Array>
          </mxGeometry>
        </mxCell>
        <mxCell id="yAhBsMz5c8Y_RLKuhSOs-22" value="C25" style="edgeLabel;html=1;align=center;verticalAlign=middle;resizable=0;points=[];fontSize=11;fontFamily=Helvetica;fontColor=default;" parent="yAhBsMz5c8Y_RLKuhSOs-15" vertex="1" connectable="0">
          <mxGeometry x="-0.7416" y="-4" relative="1" as="geometry">
            <mxPoint x="53" y="88" as="offset" />
          </mxGeometry>
        </mxCell>
        <mxCell id="yAhBsMz5c8Y_RLKuhSOs-16" style="edgeStyle=orthogonalEdgeStyle;shape=connector;curved=1;rounded=0;orthogonalLoop=1;jettySize=auto;html=1;exitX=1.006;exitY=0.48;exitDx=0;exitDy=0;entryX=0.481;entryY=-0.002;entryDx=0;entryDy=0;entryPerimeter=0;labelBackgroundColor=default;strokeColor=default;fontFamily=Helvetica;fontSize=11;fontColor=default;endArrow=classic;exitPerimeter=0;" parent="1" source="jedloqx28jn0vcMNuLZX-11" target="jedloqx28jn0vcMNuLZX-9" edge="1">
          <mxGeometry relative="1" as="geometry">
            <Array as="points">
              <mxPoint x="170" y="384" />
              <mxPoint x="170" y="550" />
            </Array>
          </mxGeometry>
        </mxCell>
        <mxCell id="yAhBsMz5c8Y_RLKuhSOs-23" value="C26" style="edgeLabel;html=1;align=center;verticalAlign=middle;resizable=0;points=[];fontSize=11;fontFamily=Helvetica;fontColor=default;" parent="yAhBsMz5c8Y_RLKuhSOs-16" vertex="1" connectable="0">
          <mxGeometry x="-0.9137" y="-1" relative="1" as="geometry">
            <mxPoint x="97" y="85" as="offset" />
          </mxGeometry>
        </mxCell>
        <mxCell id="yAhBsMz5c8Y_RLKuhSOs-17" style="edgeStyle=orthogonalEdgeStyle;shape=connector;curved=1;rounded=0;orthogonalLoop=1;jettySize=auto;html=1;exitX=0.988;exitY=0.391;exitDx=0;exitDy=0;entryX=0.611;entryY=0.01;entryDx=0;entryDy=0;entryPerimeter=0;labelBackgroundColor=default;strokeColor=default;fontFamily=Helvetica;fontSize=11;fontColor=default;endArrow=classic;exitPerimeter=0;" parent="1" source="jedloqx28jn0vcMNuLZX-11" target="jedloqx28jn0vcMNuLZX-9" edge="1">
          <mxGeometry relative="1" as="geometry">
            <Array as="points">
              <mxPoint x="190" y="377" />
              <mxPoint x="190" y="551" />
            </Array>
          </mxGeometry>
        </mxCell>
        <mxCell id="yAhBsMz5c8Y_RLKuhSOs-24" value="C27" style="edgeLabel;html=1;align=center;verticalAlign=middle;resizable=0;points=[];fontSize=11;fontFamily=Helvetica;fontColor=default;" parent="yAhBsMz5c8Y_RLKuhSOs-17" vertex="1" connectable="0">
          <mxGeometry x="-0.7485" y="-4" relative="1" as="geometry">
            <mxPoint x="89" y="73" as="offset" />
          </mxGeometry>
        </mxCell>
        <mxCell id="yAhBsMz5c8Y_RLKuhSOs-26" style="edgeStyle=orthogonalEdgeStyle;shape=connector;curved=1;rounded=0;orthogonalLoop=1;jettySize=auto;html=1;exitX=1;exitY=0;exitDx=0;exitDy=0;entryX=1;entryY=0;entryDx=0;entryDy=0;labelBackgroundColor=default;strokeColor=default;fontFamily=Helvetica;fontSize=11;fontColor=default;endArrow=classic;" parent="1" source="jedloqx28jn0vcMNuLZX-11" target="jedloqx28jn0vcMNuLZX-9" edge="1">
          <mxGeometry relative="1" as="geometry">
            <Array as="points">
              <mxPoint x="50" y="350" />
              <mxPoint x="220" y="350" />
              <mxPoint x="220" y="510" />
              <mxPoint x="221" y="510" />
            </Array>
          </mxGeometry>
        </mxCell>
        <mxCell id="yAhBsMz5c8Y_RLKuhSOs-27" value="С29" style="edgeLabel;html=1;align=center;verticalAlign=middle;resizable=0;points=[];fontSize=11;fontFamily=Helvetica;fontColor=default;" parent="yAhBsMz5c8Y_RLKuhSOs-26" vertex="1" connectable="0">
          <mxGeometry x="-0.7494" y="-3" relative="1" as="geometry">
            <mxPoint as="offset" />
          </mxGeometry>
        </mxCell>
        <mxCell id="yAhBsMz5c8Y_RLKuhSOs-28" style="edgeStyle=orthogonalEdgeStyle;shape=connector;curved=1;rounded=0;orthogonalLoop=1;jettySize=auto;html=1;exitX=0.922;exitY=0.237;exitDx=0;exitDy=0;entryX=0.657;entryY=0.019;entryDx=0;entryDy=0;entryPerimeter=0;labelBackgroundColor=default;strokeColor=default;fontFamily=Helvetica;fontSize=11;fontColor=default;endArrow=classic;exitPerimeter=0;" parent="1" source="jedloqx28jn0vcMNuLZX-11" target="jedloqx28jn0vcMNuLZX-9" edge="1">
          <mxGeometry relative="1" as="geometry">
            <Array as="points">
              <mxPoint x="55" y="370" />
              <mxPoint x="209" y="370" />
              <mxPoint x="209" y="550" />
              <mxPoint x="209" y="550" />
            </Array>
          </mxGeometry>
        </mxCell>
        <mxCell id="yAhBsMz5c8Y_RLKuhSOs-29" value="С28" style="edgeLabel;html=1;align=center;verticalAlign=middle;resizable=0;points=[];fontSize=11;fontFamily=Helvetica;fontColor=default;" parent="yAhBsMz5c8Y_RLKuhSOs-28" vertex="1" connectable="0">
          <mxGeometry x="-0.6789" y="1" relative="1" as="geometry">
            <mxPoint as="offset" />
          </mxGeometry>
        </mxCell>
        <mxCell id="jedloqx28jn0vcMNuLZX-11" value="N7" style="ellipse;whiteSpace=wrap;html=1;aspect=fixed;" parent="1" vertex="1">
          <mxGeometry x="-10" y="350" width="70" height="70" as="geometry" />
        </mxCell>
        <mxCell id="jedloqx28jn0vcMNuLZX-76" style="edgeStyle=orthogonalEdgeStyle;rounded=0;orthogonalLoop=1;jettySize=auto;html=1;exitX=0;exitY=1;exitDx=0;exitDy=0;curved=1;entryX=0.979;entryY=0.337;entryDx=0;entryDy=0;entryPerimeter=0;" parent="1" source="jedloqx28jn0vcMNuLZX-12" target="jedloqx28jn0vcMNuLZX-9" edge="1">
          <mxGeometry relative="1" as="geometry">
            <mxPoint x="230" y="570" as="targetPoint" />
          </mxGeometry>
        </mxCell>
        <mxCell id="jedloqx28jn0vcMNuLZX-77" value="С30" style="edgeLabel;html=1;align=center;verticalAlign=middle;resizable=0;points=[];" parent="jedloqx28jn0vcMNuLZX-76" vertex="1" connectable="0">
          <mxGeometry x="-0.0082" y="2" relative="1" as="geometry">
            <mxPoint x="5" as="offset" />
          </mxGeometry>
        </mxCell>
        <mxCell id="jedloqx28jn0vcMNuLZX-12" value="&lt;div&gt;N8&lt;/div&gt;" style="ellipse;whiteSpace=wrap;html=1;aspect=fixed;" parent="1" vertex="1">
          <mxGeometry x="270" y="360" width="50" height="50" as="geometry" />
        </mxCell>
        <mxCell id="jedloqx28jn0vcMNuLZX-63" style="edgeStyle=orthogonalEdgeStyle;rounded=0;orthogonalLoop=1;jettySize=auto;html=1;exitX=1;exitY=0.5;exitDx=0;exitDy=0;entryX=0;entryY=0.5;entryDx=0;entryDy=0;curved=1;" parent="1" source="jedloqx28jn0vcMNuLZX-13" target="jedloqx28jn0vcMNuLZX-14" edge="1">
          <mxGeometry relative="1" as="geometry" />
        </mxCell>
        <mxCell id="yAhBsMz5c8Y_RLKuhSOs-30" value="С33" style="edgeLabel;html=1;align=center;verticalAlign=middle;resizable=0;points=[];fontSize=11;fontFamily=Helvetica;fontColor=default;" parent="jedloqx28jn0vcMNuLZX-63" vertex="1" connectable="0">
          <mxGeometry x="-0.1048" y="-1" relative="1" as="geometry">
            <mxPoint as="offset" />
          </mxGeometry>
        </mxCell>
        <mxCell id="yAhBsMz5c8Y_RLKuhSOs-5" style="edgeStyle=orthogonalEdgeStyle;shape=connector;curved=1;rounded=0;orthogonalLoop=1;jettySize=auto;html=1;exitX=0;exitY=1;exitDx=0;exitDy=0;entryX=1;entryY=1;entryDx=0;entryDy=0;labelBackgroundColor=default;strokeColor=default;fontFamily=Helvetica;fontSize=11;fontColor=default;endArrow=classic;" parent="1" source="jedloqx28jn0vcMNuLZX-13" target="jedloqx28jn0vcMNuLZX-9" edge="1">
          <mxGeometry relative="1" as="geometry">
            <Array as="points">
              <mxPoint x="437" y="520" />
              <mxPoint x="320" y="520" />
              <mxPoint x="320" y="630" />
              <mxPoint x="240" y="630" />
              <mxPoint x="240" y="601" />
            </Array>
          </mxGeometry>
        </mxCell>
        <mxCell id="yAhBsMz5c8Y_RLKuhSOs-31" value="С34" style="edgeLabel;html=1;align=center;verticalAlign=middle;resizable=0;points=[];fontSize=11;fontFamily=Helvetica;fontColor=default;" parent="yAhBsMz5c8Y_RLKuhSOs-5" vertex="1" connectable="0">
          <mxGeometry x="0.1467" y="-1" relative="1" as="geometry">
            <mxPoint x="21" y="-56" as="offset" />
          </mxGeometry>
        </mxCell>
        <mxCell id="yAhBsMz5c8Y_RLKuhSOs-32" style="edgeStyle=orthogonalEdgeStyle;shape=connector;curved=1;rounded=0;orthogonalLoop=1;jettySize=auto;html=1;exitX=0.022;exitY=0.353;exitDx=0;exitDy=0;entryX=0.993;entryY=0.337;entryDx=0;entryDy=0;entryPerimeter=0;labelBackgroundColor=default;strokeColor=default;fontFamily=Helvetica;fontSize=11;fontColor=default;endArrow=classic;exitPerimeter=0;" parent="1" source="jedloqx28jn0vcMNuLZX-13" target="jedloqx28jn0vcMNuLZX-5" edge="1">
          <mxGeometry relative="1" as="geometry">
            <Array as="points">
              <mxPoint x="390" y="448" />
              <mxPoint x="390" y="330" />
              <mxPoint x="690" y="330" />
              <mxPoint x="690" y="670" />
              <mxPoint x="450" y="670" />
              <mxPoint x="450" y="767" />
            </Array>
          </mxGeometry>
        </mxCell>
        <mxCell id="yAhBsMz5c8Y_RLKuhSOs-33" value="С35" style="edgeLabel;html=1;align=center;verticalAlign=middle;resizable=0;points=[];fontSize=11;fontFamily=Helvetica;fontColor=default;" parent="yAhBsMz5c8Y_RLKuhSOs-32" vertex="1" connectable="0">
          <mxGeometry x="0.0132" y="1" relative="1" as="geometry">
            <mxPoint as="offset" />
          </mxGeometry>
        </mxCell>
        <mxCell id="jedloqx28jn0vcMNuLZX-13" value="&lt;div&gt;N9&lt;/div&gt;" style="ellipse;whiteSpace=wrap;html=1;aspect=fixed;" parent="1" vertex="1">
          <mxGeometry x="430" y="430" width="50" height="50" as="geometry" />
        </mxCell>
        <mxCell id="jedloqx28jn0vcMNuLZX-67" style="edgeStyle=orthogonalEdgeStyle;rounded=0;orthogonalLoop=1;jettySize=auto;html=1;exitX=0;exitY=1;exitDx=0;exitDy=0;entryX=0.324;entryY=0.975;entryDx=0;entryDy=0;curved=1;entryPerimeter=0;" parent="1" source="jedloqx28jn0vcMNuLZX-14" target="jedloqx28jn0vcMNuLZX-13" edge="1">
          <mxGeometry relative="1" as="geometry">
            <Array as="points">
              <mxPoint x="597" y="570" />
              <mxPoint x="446" y="570" />
              <mxPoint x="446" y="500" />
            </Array>
          </mxGeometry>
        </mxCell>
        <mxCell id="jedloqx28jn0vcMNuLZX-68" value="C30" style="edgeLabel;html=1;align=center;verticalAlign=middle;resizable=0;points=[];" parent="jedloqx28jn0vcMNuLZX-67" vertex="1" connectable="0">
          <mxGeometry x="-0.2484" y="-1" relative="1" as="geometry">
            <mxPoint as="offset" />
          </mxGeometry>
        </mxCell>
        <mxCell id="jedloqx28jn0vcMNuLZX-73" style="edgeStyle=orthogonalEdgeStyle;rounded=0;orthogonalLoop=1;jettySize=auto;html=1;exitX=0;exitY=0;exitDx=0;exitDy=0;entryX=0;entryY=0;entryDx=0;entryDy=0;curved=1;" parent="1" source="jedloqx28jn0vcMNuLZX-14" target="jedloqx28jn0vcMNuLZX-13" edge="1">
          <mxGeometry relative="1" as="geometry">
            <Array as="points">
              <mxPoint x="597" y="380" />
              <mxPoint x="410" y="380" />
              <mxPoint x="410" y="437" />
            </Array>
          </mxGeometry>
        </mxCell>
        <mxCell id="yAhBsMz5c8Y_RLKuhSOs-34" value="С36" style="edgeLabel;html=1;align=center;verticalAlign=middle;resizable=0;points=[];fontSize=11;fontFamily=Helvetica;fontColor=default;" parent="jedloqx28jn0vcMNuLZX-73" vertex="1" connectable="0">
          <mxGeometry x="-0.1226" y="16" relative="1" as="geometry">
            <mxPoint as="offset" />
          </mxGeometry>
        </mxCell>
        <mxCell id="jedloqx28jn0vcMNuLZX-14" value="&lt;div&gt;N10&lt;/div&gt;" style="ellipse;whiteSpace=wrap;html=1;aspect=fixed;" parent="1" vertex="1">
          <mxGeometry x="590" y="510" width="50" height="50" as="geometry" />
        </mxCell>
        <mxCell id="jedloqx28jn0vcMNuLZX-31" style="edgeStyle=orthogonalEdgeStyle;rounded=0;orthogonalLoop=1;jettySize=auto;html=1;exitX=1;exitY=0.5;exitDx=0;exitDy=0;entryX=0.579;entryY=-0.006;entryDx=0;entryDy=0;curved=1;entryPerimeter=0;" parent="1" source="jedloqx28jn0vcMNuLZX-7" target="jedloqx28jn0vcMNuLZX-7" edge="1">
          <mxGeometry relative="1" as="geometry">
            <Array as="points">
              <mxPoint x="400" y="610" />
              <mxPoint x="400" y="550" />
              <mxPoint x="369" y="550" />
            </Array>
          </mxGeometry>
        </mxCell>
        <mxCell id="jedloqx28jn0vcMNuLZX-35" value="&lt;div&gt;C8&lt;/div&gt;" style="edgeLabel;html=1;align=center;verticalAlign=middle;resizable=0;points=[];" parent="jedloqx28jn0vcMNuLZX-31" vertex="1" connectable="0">
          <mxGeometry x="0.2222" y="2" relative="1" as="geometry">
            <mxPoint x="-4" y="-2" as="offset" />
          </mxGeometry>
        </mxCell>
        <mxCell id="jedloqx28jn0vcMNuLZX-33" style="edgeStyle=orthogonalEdgeStyle;rounded=0;orthogonalLoop=1;jettySize=auto;html=1;exitX=0;exitY=0.5;exitDx=0;exitDy=0;entryX=0.417;entryY=-0.001;entryDx=0;entryDy=0;curved=1;entryPerimeter=0;" parent="1" source="jedloqx28jn0vcMNuLZX-7" target="jedloqx28jn0vcMNuLZX-7" edge="1">
          <mxGeometry relative="1" as="geometry">
            <Array as="points">
              <mxPoint x="330" y="610" />
              <mxPoint x="330" y="550" />
              <mxPoint x="360" y="550" />
              <mxPoint x="360" y="585" />
            </Array>
          </mxGeometry>
        </mxCell>
        <mxCell id="jedloqx28jn0vcMNuLZX-34" value="C7" style="edgeLabel;html=1;align=center;verticalAlign=middle;resizable=0;points=[];" parent="jedloqx28jn0vcMNuLZX-33" vertex="1" connectable="0">
          <mxGeometry x="0.15" relative="1" as="geometry">
            <mxPoint as="offset" />
          </mxGeometry>
        </mxCell>
        <mxCell id="jedloqx28jn0vcMNuLZX-57" style="edgeStyle=orthogonalEdgeStyle;rounded=0;orthogonalLoop=1;jettySize=auto;html=1;exitX=1.003;exitY=0.562;exitDx=0;exitDy=0;entryX=0.5;entryY=1;entryDx=0;entryDy=0;curved=1;exitPerimeter=0;" parent="1" source="jedloqx28jn0vcMNuLZX-13" target="jedloqx28jn0vcMNuLZX-13" edge="1">
          <mxGeometry relative="1" as="geometry">
            <Array as="points">
              <mxPoint x="500" y="458" />
              <mxPoint x="500" y="500" />
              <mxPoint x="455" y="500" />
            </Array>
          </mxGeometry>
        </mxCell>
        <mxCell id="jedloqx28jn0vcMNuLZX-60" value="C32" style="edgeLabel;html=1;align=center;verticalAlign=middle;resizable=0;points=[];" parent="jedloqx28jn0vcMNuLZX-57" vertex="1" connectable="0">
          <mxGeometry x="-0.2154" y="-1" relative="1" as="geometry">
            <mxPoint as="offset" />
          </mxGeometry>
        </mxCell>
        <mxCell id="jedloqx28jn0vcMNuLZX-58" style="edgeStyle=orthogonalEdgeStyle;rounded=0;orthogonalLoop=1;jettySize=auto;html=1;exitX=0.998;exitY=0.438;exitDx=0;exitDy=0;entryX=0.5;entryY=0;entryDx=0;entryDy=0;curved=1;exitPerimeter=0;" parent="1" source="jedloqx28jn0vcMNuLZX-13" target="jedloqx28jn0vcMNuLZX-13" edge="1">
          <mxGeometry relative="1" as="geometry">
            <Array as="points">
              <mxPoint x="500" y="452" />
              <mxPoint x="500" y="410" />
              <mxPoint x="455" y="410" />
            </Array>
          </mxGeometry>
        </mxCell>
        <mxCell id="jedloqx28jn0vcMNuLZX-59" value="C31" style="edgeLabel;html=1;align=center;verticalAlign=middle;resizable=0;points=[];" parent="jedloqx28jn0vcMNuLZX-58" vertex="1" connectable="0">
          <mxGeometry x="-0.2205" y="1" relative="1" as="geometry">
            <mxPoint as="offset" />
          </mxGeometry>
        </mxCell>
        <mxCell id="jedloqx28jn0vcMNuLZX-69" style="edgeStyle=orthogonalEdgeStyle;rounded=0;orthogonalLoop=1;jettySize=auto;html=1;exitX=1;exitY=0.5;exitDx=0;exitDy=0;entryX=0.5;entryY=1;entryDx=0;entryDy=0;curved=1;" parent="1" source="jedloqx28jn0vcMNuLZX-14" target="jedloqx28jn0vcMNuLZX-14" edge="1">
          <mxGeometry relative="1" as="geometry">
            <Array as="points">
              <mxPoint x="650" y="535" />
              <mxPoint x="650" y="590" />
              <mxPoint x="615" y="590" />
            </Array>
          </mxGeometry>
        </mxCell>
        <mxCell id="jedloqx28jn0vcMNuLZX-70" value="С38" style="edgeLabel;html=1;align=center;verticalAlign=middle;resizable=0;points=[];" parent="jedloqx28jn0vcMNuLZX-69" vertex="1" connectable="0">
          <mxGeometry x="-0.1385" y="-2" relative="1" as="geometry">
            <mxPoint y="-11" as="offset" />
          </mxGeometry>
        </mxCell>
        <mxCell id="jedloqx28jn0vcMNuLZX-71" style="edgeStyle=orthogonalEdgeStyle;rounded=0;orthogonalLoop=1;jettySize=auto;html=1;exitX=1;exitY=0.5;exitDx=0;exitDy=0;entryX=0.5;entryY=0;entryDx=0;entryDy=0;curved=1;" parent="1" source="jedloqx28jn0vcMNuLZX-14" target="jedloqx28jn0vcMNuLZX-14" edge="1">
          <mxGeometry relative="1" as="geometry">
            <Array as="points">
              <mxPoint x="650" y="535" />
              <mxPoint x="650" y="480" />
              <mxPoint x="615" y="480" />
            </Array>
          </mxGeometry>
        </mxCell>
        <mxCell id="jedloqx28jn0vcMNuLZX-72" value="С37" style="edgeLabel;html=1;align=center;verticalAlign=middle;resizable=0;points=[];" parent="jedloqx28jn0vcMNuLZX-71" vertex="1" connectable="0">
          <mxGeometry x="-0.4256" y="1" relative="1" as="geometry">
            <mxPoint as="offset" />
          </mxGeometry>
        </mxCell>
        <mxCell id="yAhBsMz5c8Y_RLKuhSOs-3" style="edgeStyle=orthogonalEdgeStyle;shape=connector;curved=1;rounded=0;orthogonalLoop=1;jettySize=auto;html=1;exitX=0.5;exitY=1;exitDx=0;exitDy=0;entryX=1;entryY=0.5;entryDx=0;entryDy=0;labelBackgroundColor=default;strokeColor=default;fontFamily=Helvetica;fontSize=11;fontColor=default;endArrow=classic;" parent="1" source="jedloqx28jn0vcMNuLZX-10" target="jedloqx28jn0vcMNuLZX-10" edge="1">
          <mxGeometry relative="1" as="geometry">
            <Array as="points">
              <mxPoint x="505" y="650" />
              <mxPoint x="550" y="650" />
              <mxPoint x="550" y="610" />
            </Array>
          </mxGeometry>
        </mxCell>
        <mxCell id="yAhBsMz5c8Y_RLKuhSOs-4" value="C19" style="edgeLabel;html=1;align=center;verticalAlign=middle;resizable=0;points=[];fontSize=11;fontFamily=Helvetica;fontColor=default;" parent="yAhBsMz5c8Y_RLKuhSOs-3" vertex="1" connectable="0">
          <mxGeometry x="-0.125" y="4" relative="1" as="geometry">
            <mxPoint y="1" as="offset" />
          </mxGeometry>
        </mxCell>
        <mxCell id="nQtd1Qmtmmhwb3LdTm5A-1" style="edgeStyle=orthogonalEdgeStyle;rounded=0;orthogonalLoop=1;jettySize=auto;html=1;exitX=0;exitY=0.5;exitDx=0;exitDy=0;entryX=0.177;entryY=0.901;entryDx=0;entryDy=0;entryPerimeter=0;curved=1;" edge="1" parent="1" source="jedloqx28jn0vcMNuLZX-7" target="jedloqx28jn0vcMNuLZX-7">
          <mxGeometry relative="1" as="geometry">
            <Array as="points">
              <mxPoint x="320" y="610" />
              <mxPoint x="320" y="630" />
              <mxPoint x="349" y="630" />
            </Array>
          </mxGeometry>
        </mxCell>
        <mxCell id="nQtd1Qmtmmhwb3LdTm5A-2" value="C9" style="edgeLabel;html=1;align=center;verticalAlign=middle;resizable=0;points=[];" vertex="1" connectable="0" parent="nQtd1Qmtmmhwb3LdTm5A-1">
          <mxGeometry x="-0.1648" relative="1" as="geometry">
            <mxPoint as="offset" />
          </mxGeometry>
        </mxCell>
        <mxCell id="nQtd1Qmtmmhwb3LdTm5A-3" style="edgeStyle=orthogonalEdgeStyle;rounded=0;orthogonalLoop=1;jettySize=auto;html=1;exitX=0;exitY=1;exitDx=0;exitDy=0;entryX=0.048;entryY=0.739;entryDx=0;entryDy=0;entryPerimeter=0;curved=1;" edge="1" parent="1" source="jedloqx28jn0vcMNuLZX-9" target="jedloqx28jn0vcMNuLZX-9">
          <mxGeometry relative="1" as="geometry">
            <Array as="points">
              <mxPoint x="179" y="610" />
              <mxPoint x="160" y="610" />
              <mxPoint x="160" y="594" />
            </Array>
          </mxGeometry>
        </mxCell>
        <mxCell id="nQtd1Qmtmmhwb3LdTm5A-4" value="C17" style="edgeLabel;html=1;align=center;verticalAlign=middle;resizable=0;points=[];" vertex="1" connectable="0" parent="nQtd1Qmtmmhwb3LdTm5A-3">
          <mxGeometry x="-0.2883" relative="1" as="geometry">
            <mxPoint as="offset" />
          </mxGeometry>
        </mxCell>
      </root>
    </mxGraphModel>
  </diagram>
</mxfile>
